<svg width="98" height="67" viewBox="0 0 98 67" fill="none" xmlns="http://www.w3.org/2000/svg">
<ellipse cx="63.9678" cy="33.4321" rx="30.1821" ry="30.1821" stroke="#25C9D0" stroke-width="6.5"/>
<ellipse cx="33.1821" cy="33.4321" rx="30.1821" ry="30.1821" stroke="#FF5168" stroke-width="6"/>
<path d="M48.5745 7.47559L50.0767 4.87879L48.5745 4.00978L47.0723 4.87879L48.5745 7.47559ZM63.6653 33.6191L66.6653 33.6191V33.6191H63.6653ZM48.5745 59.7627L47.0723 62.3595L48.5745 63.2285L50.0767 62.3595L48.5745 59.7627ZM33.4836 33.6191H30.4836V33.6191L33.4836 33.6191ZM48.5745 7.47559L47.0723 10.0724C55.2047 14.7769 60.6653 23.5619 60.6653 33.6191H63.6653H66.6653C66.6653 21.3334 59.9867 10.6116 50.0767 4.87879L48.5745 7.47559ZM63.6653 33.6191L60.6653 33.6191C60.6653 43.6764 55.2048 52.4614 47.0723 57.1659L48.5745 59.7627L50.0767 62.3595C59.9868 56.6267 66.6653 45.9049 66.6653 33.6191L63.6653 33.6191ZM48.5745 59.7627L50.0767 57.1659C41.9442 52.4614 36.4837 43.6764 36.4836 33.6191L33.4836 33.6191L30.4836 33.6191C30.4837 45.9049 37.1622 56.6267 47.0723 62.3595L48.5745 59.7627ZM33.4836 33.6191H36.4836C36.4836 23.5619 41.9442 14.7769 50.0767 10.0724L48.5745 7.47559L47.0723 4.87879C37.1622 10.6116 30.4836 21.3334 30.4836 33.6191H33.4836Z" fill="black"/>
</svg>
